<svg width="60" height="60" viewBox="0 0 60 60" fill="none" xmlns="http://www.w3.org/2000/svg">
<g id="cryptocurrency-color:chat" clip-path="url(#clip0_334_135)">
<g id="Group">
<path id="Vector" d="M30 60C46.5685 60 60 46.5685 60 30C60 13.4315 46.5685 0 30 0C13.4315 0 0 13.4315 0 30C0 46.5685 13.4315 60 30 60Z" fill="#1C98F7"/>
<path id="Vector_2" fill-rule="evenodd" clip-rule="evenodd" d="M30.525 43.7344C31.8443 43.6422 33.1523 43.4288 34.4325 43.0969C36.0123 43.5787 37.6822 43.6878 39.3112 43.4156C39.3759 43.4072 39.441 43.4022 39.5062 43.4006C40.0875 43.4006 40.8506 43.7381 41.9625 44.4506V43.2787C41.9627 43.076 42.0169 42.877 42.1193 42.702C42.2218 42.5271 42.3689 42.3825 42.5456 42.2831C43.0306 42.0081 43.4788 41.6962 43.89 41.3475C45.51 39.975 46.425 38.145 46.425 36.2062C46.4225 35.5537 46.3231 34.925 46.1269 34.32C46.6181 33.405 47.01 32.4487 47.3025 31.4512C48.2411 32.8599 48.7446 34.5135 48.75 36.2062C48.75 38.8406 47.5238 41.2969 45.4031 43.0931C45.0487 43.3921 44.6761 43.6689 44.2875 43.9219V46.6612C44.2875 47.6044 43.2 48.1462 42.4331 47.5856C41.708 47.0435 40.9571 46.5366 40.1831 46.0669C39.9614 45.9343 39.7309 45.8171 39.4931 45.7162C38.8544 45.8125 38.205 45.8606 37.545 45.8606C34.8975 45.8606 32.4506 45.0675 30.525 43.7344ZM16.5263 38.2556C13.1813 35.4187 11.25 31.5544 11.25 27.4125C11.25 18.9506 19.2337 12.1875 28.9819 12.1875C38.73 12.1875 46.7156 18.9506 46.7156 27.4125C46.7156 35.8762 38.73 42.6394 28.9819 42.6394C27.8844 42.6394 26.8044 42.555 25.7419 42.3862C25.2825 42.495 23.4469 43.5862 20.8012 45.5175C19.8431 46.2187 18.4837 45.5419 18.4837 44.3625V39.69C17.7977 39.2595 17.1435 38.7801 16.5263 38.2556ZM25.8056 39.5044C25.8869 39.5044 25.9681 39.5106 26.0494 39.5231C27.0056 39.6844 27.9881 39.7669 28.9819 39.7669C37.2169 39.7669 43.8075 34.1831 43.8075 27.4125C43.8075 20.6437 37.2169 15.06 28.9819 15.06C20.7506 15.06 14.1563 20.6437 14.1563 27.4125C14.1563 30.6862 15.6956 33.7687 18.4181 36.075C19.1056 36.655 19.8531 37.175 20.6606 37.635C21.1125 37.89 21.3919 38.3662 21.3919 38.88V41.5744C23.4844 40.17 24.8606 39.5044 25.8056 39.5044ZM21.4237 30.2869C20.1394 30.2869 19.0987 29.2556 19.0987 27.9881C19.0987 26.7187 20.1394 25.6894 21.4237 25.6894C22.7081 25.6894 23.7488 26.7187 23.7488 27.9881C23.7488 29.2575 22.7081 30.2869 21.4237 30.2869ZM28.9819 30.2869C27.6975 30.2869 26.6569 29.2556 26.6569 27.9881C26.6569 26.7187 27.6975 25.6894 28.9819 25.6894C30.2662 25.6894 31.3069 26.7187 31.3069 27.9881C31.3069 29.2575 30.2662 30.2869 28.9819 30.2869ZM36.54 30.2869C35.2556 30.2869 34.215 29.2556 34.215 27.9881C34.215 26.7187 35.2556 25.6894 36.54 25.6894C37.8244 25.6894 38.865 26.7187 38.865 27.9881C38.865 29.2575 37.8244 30.2869 36.54 30.2869Z" fill="white"/>
</g>
</g>
<defs>
<clipPath id="clip0_334_135">
<rect width="60" height="60" fill="white"/>
</clipPath>
</defs>
</svg>
