<svg width="25" height="25" viewBox="0 0 25 25" fill="none" xmlns="http://www.w3.org/2000/svg">
<path id="Vector" d="M18.75 1.67485C20.6503 2.77196 22.2282 4.34993 23.3253 6.25017C24.4224 8.15041 25 10.306 25 12.5002C25 14.6944 24.4224 16.8499 23.3253 18.7501C22.2281 20.6504 20.6501 22.2283 18.7499 23.3254C16.8496 24.4225 14.694 25 12.4998 25C10.3056 25 8.15002 24.4224 6.24979 23.3252C4.34956 22.2281 2.77161 20.6501 1.67454 18.7498C0.577475 16.8495 -5.57371e-05 14.694 4.03456e-09 12.4998L0.00625015 12.0948C0.076254 9.93603 0.704435 7.83226 1.82955 5.98856C2.95466 4.14487 4.53832 2.62416 6.42612 1.57471C8.31391 0.525253 10.4414 -0.0171384 12.6013 0.000412804C14.7611 0.017964 16.8795 0.594858 18.75 1.67485ZM12.5 4.99983C12.1685 4.99983 11.8505 5.13152 11.6161 5.36594C11.3817 5.60036 11.25 5.9183 11.25 6.24982C10.2554 6.24982 9.30161 6.64491 8.59835 7.34816C7.89509 8.05142 7.5 9.00524 7.5 9.99979C7.5 10.9943 7.89509 11.9482 8.59835 12.6514C9.30161 13.3547 10.2554 13.7498 11.25 13.7498V16.2497C11.0427 16.2612 10.8357 16.2219 10.6471 16.1352C10.4584 16.0485 10.2938 15.917 10.1675 15.7522L10.0825 15.626C9.91148 15.3502 9.63989 15.1517 9.32517 15.0725C9.01045 14.9933 8.67727 15.0396 8.39608 15.2017C8.11489 15.3637 7.90774 15.6287 7.81842 15.9407C7.72911 16.2527 7.76464 16.5872 7.9175 16.8735C8.23655 17.4268 8.69164 17.8895 9.23963 18.2176C9.78762 18.5458 10.4103 18.7285 11.0487 18.7485H11.25C11.2497 19.0549 11.362 19.3507 11.5655 19.5797C11.769 19.8088 12.0495 19.9551 12.3538 19.991L12.5 19.9997C12.8315 19.9997 13.1495 19.868 13.3839 19.6336C13.6183 19.3992 13.75 19.0812 13.75 18.7497L13.97 18.7435C14.9445 18.6872 15.8586 18.2531 16.5182 17.5334C17.1777 16.8138 17.5306 15.8654 17.502 14.8897C17.4734 13.914 17.0654 12.9879 16.3648 12.3082C15.6642 11.6286 14.7261 11.2488 13.75 11.2498V8.7498C14.1975 8.7348 14.5887 8.9248 14.8325 9.2473L14.9175 9.37355C15.0885 9.64935 15.3601 9.84784 15.6748 9.92703C15.9895 10.0062 16.3227 9.9599 16.6039 9.79788C16.8851 9.63586 17.0923 9.37082 17.1816 9.05883C17.2709 8.74683 17.2354 8.41233 17.0825 8.12606C16.7636 7.5725 16.3086 7.10958 15.7606 6.78122C15.2126 6.45286 14.5898 6.26995 13.9513 6.24982H13.75C13.75 5.9183 13.6183 5.60036 13.3839 5.36594C13.1495 5.13152 12.8315 4.99983 12.5 4.99983ZM13.75 13.7498C14.0815 13.7498 14.3995 13.8815 14.6339 14.1159C14.8683 14.3503 15 14.6682 15 14.9998C15 15.3313 14.8683 15.6492 14.6339 15.8836C14.3995 16.1181 14.0815 16.2497 13.75 16.2497V13.7498ZM11.25 8.7498V11.2498C10.9185 11.2498 10.6005 11.1181 10.3661 10.8837C10.1317 10.6493 10 10.3313 10 9.99979C10 9.66827 10.1317 9.35033 10.3661 9.11592C10.6005 8.8815 10.9185 8.7498 11.25 8.7498Z" fill="#6673FF"/>
</svg>
