<svg width="20" height="20" viewBox="0 0 20 20" fill="none" xmlns="http://www.w3.org/2000/svg">
<path d="M10 14.4444C9.38889 14.4444 8.86593 14.227 8.43111 13.7922C7.9963 13.3574 7.77852 12.8341 7.77778 12.2222C7.77704 11.6104 7.99482 11.0874 8.43111 10.6533C8.86741 10.2193 9.39037 10.0015 10 10C10.6096 9.99852 11.133 10.2163 11.57 10.6533C12.007 11.0904 12.2244 11.6133 12.2222 12.2222C12.22 12.8311 12.0026 13.3544 11.57 13.7922C11.1374 14.23 10.6141 14.4474 10 14.4444ZM4.86111 4.44444H15.1389L17.3611 0H2.63889L4.86111 4.44444ZM6 20H14C15.6667 20 17.0833 19.4215 18.25 18.2644C19.4167 17.1074 20 15.6859 20 14C20 13.2963 19.8796 12.6111 19.6389 11.9444C19.3981 11.2778 19.0556 10.6759 18.6111 10.1389L15.7222 6.66667H4.27778L1.38889 10.1389C0.944444 10.6759 0.601852 11.2778 0.361111 11.9444C0.12037 12.6111 0 13.2963 0 14C0 15.6852 0.578889 17.1067 1.73667 18.2644C2.89444 19.4222 4.31556 20.0007 6 20Z" fill="#68687C"/>
</svg>
