<svg width="20" height="20" viewBox="0 0 20 20" fill="none" xmlns="http://www.w3.org/2000/svg">
<path id="Vector" d="M0 18.7V7.40071C0 7.06792 0.0819047 6.7529 0.245714 6.45564C0.409524 6.15838 0.635238 5.91355 0.922857 5.72116L8.61572 0.41989C9.01857 0.139964 9.47857 0 9.99571 0C10.5129 0 10.9757 0.139964 11.3843 0.41989L19.0771 5.71986C19.3657 5.91225 19.5914 6.15751 19.7543 6.45564C19.9181 6.7529 20 7.06792 20 7.40071V18.7C20 19.0484 19.8576 19.3522 19.5729 19.6113C19.2881 19.8704 18.9543 20 18.5714 20H13.7371C13.4095 20 13.1352 19.8995 12.9143 19.6984C12.6933 19.4965 12.5829 19.2469 12.5829 18.9496V12.7501C12.5829 12.4528 12.4724 12.2037 12.2514 12.0026C12.0295 11.8007 11.7552 11.6997 11.4286 11.6997H8.57143C8.24476 11.6997 7.97095 11.8007 7.75 12.0026C7.5281 12.2037 7.41714 12.4528 7.41714 12.7501V18.9509C7.41714 19.2482 7.30667 19.4973 7.08571 19.6984C6.86476 19.8995 6.59095 20 6.26429 20H1.42857C1.04571 20 0.711904 19.8704 0.427143 19.6113C0.142381 19.3522 0 19.0484 0 18.7Z" fill="#68687C"/>
</svg>
