<svg width="28" height="30" viewBox="0 0 28 30" fill="none" xmlns="http://www.w3.org/2000/svg">
<path d="M26.446 6C26.8425 6.00042 27.2239 6.14682 27.5122 6.40927C27.8006 6.67173 27.9741 7.03043 27.9973 7.41209C28.0206 7.79375 27.8918 8.16957 27.6373 8.46275C27.3828 8.75593 27.0218 8.94434 26.628 8.9895L26.446 9H26.32L24.8902 25.5C24.8903 26.6478 24.4354 27.7523 23.6187 28.5874C22.802 29.4225 21.6852 29.9252 20.4968 29.9925L20.223 30H7.77701C5.29093 30 3.25912 28.1265 3.12222 25.875L3.11444 25.6245L1.67848 9H1.55402C1.1575 8.99958 0.7761 8.85318 0.487764 8.59073C0.199428 8.32827 0.0259143 7.96957 0.00267594 7.58791C-0.0205624 7.20625 0.108228 6.83043 0.362733 6.53725C0.617238 6.24407 0.978248 6.05566 1.372 6.0105L1.55402 6H26.446ZM11.6835 13.71C11.3575 13.5229 10.9719 13.4571 10.5992 13.5249C10.2264 13.5928 9.89219 13.7896 9.65939 14.0784C9.42659 14.3671 9.31124 14.728 9.33503 15.093C9.35883 15.458 9.52013 15.8021 9.78859 16.0605L11.7986 18L9.78859 19.9395L9.65947 20.0805C9.41769 20.382 9.30399 20.7609 9.34147 21.1403C9.37896 21.5197 9.56481 21.8711 9.86128 22.1231C10.1578 22.3752 10.5426 22.509 10.9377 22.4973C11.3328 22.4857 11.7085 22.3295 11.9884 22.0605L14 20.1225L16.0116 22.0605L16.1578 22.185C16.4705 22.4181 16.8635 22.5277 17.257 22.4916C17.6505 22.4555 18.0149 22.2763 18.2764 21.9904C18.5378 21.7046 18.6765 21.3335 18.6645 20.9526C18.6524 20.5717 18.4904 20.2094 18.2114 19.9395L16.2014 18L18.2114 16.0605L18.3405 15.9195C18.5823 15.618 18.696 15.2391 18.6585 14.8597C18.621 14.4803 18.4352 14.1289 18.1387 13.8769C17.8422 13.6248 17.4574 13.491 17.0623 13.5027C16.6672 13.5143 16.2916 13.6705 16.0116 13.9395L14 15.8775L11.9884 13.9395L11.8422 13.815L11.6835 13.71ZM17.1115 0C17.9367 0 18.7281 0.31607 19.3117 0.87868C19.8952 1.44129 20.223 2.20435 20.223 3C20.2225 3.38232 20.0707 3.75005 19.7985 4.02805C19.5263 4.30606 19.1543 4.47335 18.7584 4.49576C18.3626 4.51816 17.9728 4.39399 17.6687 4.1486C17.3646 3.90322 17.1692 3.55514 17.1224 3.1755L17.1115 3H10.8885L10.8776 3.1755C10.8308 3.55514 10.6354 3.90322 10.3313 4.1486C10.0272 4.39399 9.63743 4.51816 9.24158 4.49576C8.84574 4.47335 8.4737 4.30606 8.2015 4.02805C7.92929 3.75005 7.77745 3.38232 7.77701 3C7.77676 2.24314 8.07324 1.51415 8.607 0.959178C9.14076 0.404206 9.87236 0.064265 10.6551 0.00750017L10.8885 0H17.1115Z" fill="#FB9499"/>
</svg>
