<svg width="35" height="35" viewBox="0 0 35 35" fill="none" xmlns="http://www.w3.org/2000/svg">
<g id="tdesign:shop-filled">
<path id="Vector" d="M17.5 1.45825C15.7595 1.45825 14.0903 2.14966 12.8596 3.38036C11.6289 4.61107 10.9375 6.28027 10.9375 8.02075V10.2083H4.375V33.5416H30.625V10.2083H24.0625V8.02075C24.0625 6.28027 23.3711 4.61107 22.1404 3.38036C20.9097 2.14966 19.2405 1.45825 17.5 1.45825ZM21.1458 8.02075V10.2083H13.8542V8.02075C13.8542 7.05382 14.2383 6.12648 14.922 5.44276C15.6057 4.75903 16.5331 4.37492 17.5 4.37492C18.4669 4.37492 19.3943 4.75903 20.078 5.44276C20.7617 6.12648 21.1458 7.05382 21.1458 8.02075ZM10.9375 17.4999V13.1249H13.8542V17.4999H10.9375ZM21.1458 17.4999V13.1249H24.0625V17.4999H21.1458Z" fill="#6673FF"/>
</g>
</svg>
